<svg width="5.027em" height="1em" viewBox="0 0 181 36" fill="none" xmlns="http://www.w3.org/2000/svg">
<g clip-path="url(#clip0_18_210)">
<path d="M25.858 29.6722H5.17315V8.9873H0.0016861V34.8446H25.859V29.6731L25.858 29.6722ZM89.2047 19.3293L82.817 19.3236L82.7867 24.3636L84.0323 24.3352V29.6712H68.5188V14.1578H89.2037V8.98636H63.3464V34.8436H89.2037V19.3293H89.2047ZM57.6349 14.1588V8.9873H31.7776V14.1588H57.6349ZM57.6349 24.5017V19.3302H31.7776V24.5017H57.6349ZM57.6349 34.8446V29.6731H31.7776V34.8446H57.6349ZM110.847 34.8446V24.5017L121.189 8.9873H114.804L108.269 18.4346L101.8 8.9873H95.3323L105.675 24.5017V34.8446H110.848H110.847ZM154.759 8.9873V34.8446H159.93V14.1597H175.444V34.8446H180.615V8.9873H154.758H154.759Z" fill="currentColor"/>
<path fill-rule="evenodd" clip-rule="evenodd" d="M135.39 0.5L135.408 3.18503L136.542 3.96056L136.521 7.83442C132.86 8.99204 129.634 9.89146 126.655 10.5866C126.596 11.6411 126.569 13.4419 126.559 14.9674C129.5 14.4188 132.438 13.8504 135.373 13.2905L135.365 34.1986C136.354 34.7415 136.916 35.0366 137.766 35.5009C137.771 35.5009 139.986 34.2989 140.167 34.1986L140.16 13.2905C143.094 13.8504 146.033 14.4188 148.973 14.9674C148.963 13.4419 148.935 11.6421 148.877 10.5866C145.897 9.89146 142.672 8.99204 139.01 7.83442L138.989 3.96056L140.124 3.18503L140.142 0.5C138.538 0.51797 136.991 0.51797 135.388 0.5L135.39 0.5ZM139.503 32.2295L138.833 32.9001H136.03V29.9086L136.934 29.3865V32.2305H139.503V32.2295ZM148.974 16.4135C148.962 18.4516 148.966 23.2788 148.967 24.5906C148.969 28.2582 144.498 31.7434 141.453 33.7588L141.468 28.5448C142.126 28.1268 144.516 26.8037 144.511 23.1521L144.488 15.567L148.975 16.4135H148.974ZM126.559 16.4135C126.572 18.4516 126.569 23.2788 126.568 24.5906C126.564 28.2582 131.037 31.7434 134.081 33.7588L134.066 28.5448C133.408 28.1268 131.019 26.8037 131.023 23.1521L131.045 15.567L126.559 16.4135H126.559Z" fill="currentColor"/>
</g>
<defs>
<clipPath id="clip0_18_210">
<rect width="180.617" height="35" fill="currentColor" transform="translate(0 0.5)"/>
</clipPath>
</defs>
</svg>
